<?xml version="1.0" encoding="UTF-8"?>
<svg version="1.1" xmlns="http://www.w3.org/2000/svg" width="315" height="296">
<path d="M0 0 C0.70447266 -0.00555908 1.40894531 -0.01111816 2.13476562 -0.0168457 C9.95409097 0.0899308 16.49416993 2.02748653 23.4375 5.625 C24.10160889 5.96257324 24.76571777 6.30014648 25.44995117 6.64794922 C33.71045749 10.90848397 41.76580977 15.54985357 49.83203125 20.1640625 C54.40309603 22.77500973 59.01339627 25.30533748 63.63989258 27.81640625 C69.23202154 30.87528033 74.76155472 34.04624894 80.29931641 37.20214844 C85.1644194 39.96550824 90.04090059 42.68624197 94.99609375 45.28515625 C107.32676544 51.77047663 116.94306065 57.27650389 122.35180664 70.7434082 C124.0837361 76.78470546 124.04239011 82.75920803 123.91699219 88.98730469 C123.87464757 91.20596558 123.8759818 93.42162236 123.8828125 95.640625 C123.78345826 109.19394627 123.78345826 109.19394627 118.875 115.125 C115.55428587 117.75389869 111.71787749 117.70100226 107.66796875 117.66796875 C103.73942969 117.05894481 102.05017987 115.18831836 99.375 112.3125 C98.26200873 108.97352619 98.23314328 106.4038874 98.19921875 102.88671875 C98.17537109 101.61505859 98.15152344 100.34339844 98.12695312 99.03320312 C98.08039169 96.35575754 98.05282689 93.67994294 98.03320312 91.00195312 C98.00548828 89.72642578 97.97777344 88.45089844 97.94921875 87.13671875 C97.92734497 85.39007935 97.92734497 85.39007935 97.9050293 83.6081543 C97.12801305 78.7767668 95.10073604 75.63703862 91.22216797 72.66015625 C90.44502441 72.23605469 89.66788086 71.81195313 88.8671875 71.375 C87.97483398 70.87911377 87.08248047 70.38322754 86.16308594 69.87231445 C85.20176758 69.35757568 84.24044922 68.84283691 83.25 68.3125 C82.25258789 67.76360107 81.25517578 67.21470215 80.22753906 66.64916992 C76.95230741 64.85326305 73.66512798 63.08095556 70.375 61.3125 C69.18310701 60.66908112 67.99137754 60.02535922 66.79980469 59.38134766 C62.11053053 56.84785449 57.42031325 54.31637832 52.71826172 51.80664062 C51.6717041 51.24783203 50.62514648 50.68902344 49.546875 50.11328125 C48.6197168 49.61997314 47.69255859 49.12666504 46.73730469 48.6184082 C44.375 47.3125 44.375 47.3125 41.375 45.3125 C41.25900453 52.91859388 41.17023363 60.52459574 41.11593914 68.13137341 C41.08987612 71.66382845 41.05454134 75.19567713 40.99780273 78.7277832 C40.93293936 82.79123661 40.90879268 86.85405598 40.88671875 90.91796875 C40.86091232 92.1827153 40.8351059 93.44746185 40.80851746 94.75053406 C40.68596596 101.59057049 40.68596596 101.59057049 43.69042969 107.51538086 C45.01929199 108.40495483 45.01929199 108.40495483 46.375 109.3125 C46.96095947 109.72419434 47.54691895 110.13588867 48.15063477 110.56005859 C48.70033936 110.85734863 49.25004395 111.15463867 49.81640625 111.4609375 C50.46722168 111.81824951 51.11803711 112.17556152 51.78857422 112.54370117 C52.49771973 112.92115479 53.20686523 113.2986084 53.9375 113.6875 C54.70852051 114.10684814 55.47954102 114.52619629 56.27392578 114.95825195 C58.96900304 116.41967444 61.67163407 117.86647107 64.375 119.3125 C66.51704583 120.46462301 68.65896677 121.61697823 70.80078125 122.76953125 C73.11697647 124.01341387 75.43338836 125.25689309 77.75 126.5 C78.33483154 126.81400757 78.91966309 127.12801514 79.5222168 127.45153809 C85.7676914 130.80327897 92.02082555 134.13757626 98.31158447 137.40370178 C100.901261 138.74977437 103.48577542 140.10558871 106.06988525 141.46231079 C107.30491486 142.10719087 108.54248257 142.74723562 109.78265381 143.38217163 C111.50849743 144.26610239 113.22517823 145.16785409 114.94140625 146.0703125 C115.92052979 146.5770752 116.89965332 147.08383789 117.90844727 147.60595703 C120.81508075 149.6169803 121.96721364 151.07398469 123.375 154.3125 C123.93938336 158.74619066 123.89013678 163.18294517 123.87597656 167.64746094 C123.87501492 169.77941721 123.91642974 171.90763535 123.9609375 174.0390625 C124.07574162 186.9777412 121.07041057 197.76952174 111.8359375 207.21875 C101.44853399 216.05628695 88.57680873 217.31138905 75.484375 216.52880859 C70.18068369 215.98493469 66.00160621 213.83513981 61.375 211.3125 C59.76970013 210.46322238 58.16421401 209.61429676 56.55859375 208.765625 C46.07722121 203.16495701 35.75270277 197.28066723 25.43139648 191.3918457 C20.02524046 188.32301821 14.58333423 185.33858319 9.0859375 182.4375 C8.46552582 182.10925735 7.84511414 181.78101471 7.2059021 181.44282532 C4.18583999 179.84633845 1.16155327 178.25986328 -1.87158203 176.68823242 C-17.72914454 168.34038969 -31.63678948 158.2205263 -38.5 141.0625 C-40.57153027 134.1573991 -40.78095877 127.45751114 -40.80200195 120.31323242 C-40.80857315 119.33340897 -40.81514435 118.35358551 -40.82191467 117.34407043 C-40.8415398 114.11870229 -40.85328454 110.89338041 -40.86328125 107.66796875 C-40.86735678 106.5615484 -40.8714323 105.45512806 -40.87563133 104.31517982 C-40.89644348 98.46166804 -40.91076761 92.60817938 -40.92016602 86.75463867 C-40.93123596 80.7257843 -40.965657 74.69729842 -41.00533772 68.66857433 C-41.0315357 64.01613194 -41.03986057 59.36377713 -41.04344749 54.71126747 C-41.0483031 52.48942888 -41.0598876 50.26759393 -41.07848549 48.04582787 C-41.10295021 44.93024105 -41.10189859 41.81560553 -41.0949707 38.69995117 C-41.10778076 37.79312592 -41.12059082 36.88630066 -41.13378906 35.95199585 C-41.04997082 25.54838355 -37.17266299 17.93633005 -30.046875 10.5078125 C-26.51709983 7.3082421 -23.00464144 5.15419537 -18.625 3.3125 C-17.54025391 2.83683594 -17.54025391 2.83683594 -16.43359375 2.3515625 C-10.99134677 0.34410084 -5.73962212 0.03795717 0 0 Z " fill="#333FEE" transform="translate(82.625,55.6875)"/>
<path d="M0 0 C1.41236991 0.64150053 2.80733041 1.32222851 4.18603516 2.03320312 C4.90167633 2.39965942 5.6173175 2.76611572 6.35464478 3.14367676 C6.897612 3.42626343 7.44057922 3.7088501 8 4 C8.00879936 5.47339088 8.00879936 5.47339088 8.01777649 6.97654724 C8.07513421 16.25978888 8.14796351 25.5427992 8.23571491 34.82580471 C8.28033148 39.59763824 8.3196066 44.3693881 8.34643555 49.14135742 C8.37255573 53.75159459 8.41301914 58.36150828 8.46318626 62.97154427 C8.47979625 64.72524029 8.49134691 66.47899218 8.49761391 68.23275566 C8.54828858 81.11675642 8.86094156 90.85510751 18.15869141 100.56738281 C23.58039468 105.20923291 29.83244643 108.20940083 36.1875 111.375 C37.62104794 112.10903811 39.05341063 112.84539528 40.48461914 113.58398438 C43.33153574 115.05176452 46.1826128 116.51088934 49.03710938 117.96386719 C54.39556179 120.70283876 59.66965432 123.59138233 64.9375 126.5 C72.2500921 130.51573085 79.59430165 134.46343547 86.98999023 138.32421875 C91.89655928 140.89655928 91.89655928 140.89655928 93 142 C93.70394704 149.41155665 94.18542892 156.39313804 89.46875 162.51171875 C85.81970644 166.20928683 82.17626148 167.22623211 77.125 167.6875 C69.66849221 167.43728162 63.69431706 163.83442703 57.33398438 160.29638672 C54.86514802 158.92509791 52.38000826 157.58750443 49.890625 156.25390625 C38.29424207 150.01584473 26.82261251 143.55594311 15.37890625 137.04296875 C12.0282126 135.13855784 8.66552159 133.26264063 5.27734375 131.42578125 C-6.99492585 124.75823559 -14.56719212 119.32823802 -20 106 C-21.23509567 101.75965322 -21.16290788 97.58016739 -21.17700195 93.19580078 C-21.18357315 92.30752594 -21.19014435 91.4192511 -21.19691467 90.50405884 C-21.21660787 87.56780916 -21.22829988 84.63161048 -21.23828125 81.6953125 C-21.24235678 80.69147396 -21.2464323 79.68763542 -21.25063133 78.65337753 C-21.27147261 73.34265093 -21.28578414 68.03195003 -21.29516602 62.72119141 C-21.30624138 57.2377687 -21.34065997 51.75475055 -21.38033772 46.27147102 C-21.40648005 42.052391 -21.41485562 37.83340789 -21.41844749 33.614254 C-21.42331764 31.59285619 -21.43494378 29.57146283 -21.45348549 27.5501442 C-21.47783162 24.72076509 -21.47692044 21.89244006 -21.4699707 19.06298828 C-21.48278076 18.23057617 -21.49559082 17.39816406 -21.50878906 16.54052734 C-21.46117199 11.21521856 -20.5006252 8.24192257 -17 4 C-11.98368139 -0.6492709 -6.55024031 -1.16907176 0 0 Z " fill="#FAFAFD" transform="translate(88,81)"/>
<path d="M0 0 C9.74914383 5.03046514 19.08961906 10.8752083 28.46191406 16.56738281 C31.90475765 18.6443585 35.37915691 20.64482081 38.8828125 22.6171875 C47.83951063 27.69526541 56.65296863 33.01089016 65.4453125 38.3671875 C66.13786133 38.78677734 66.83041016 39.20636719 67.54394531 39.63867188 C84.04437035 49.68674148 97.47065476 61.73011052 103.2578125 80.6796875 C104.58070935 86.51107766 104.79408829 92.28638228 104.8828125 98.2421875 C104.90512939 99.14622314 104.92744629 100.05025879 104.95043945 100.98168945 C104.93112025 106.60149033 104.26635861 109.95668781 100.4453125 114.3671875 C96.39423012 117.00919775 93.261556 118.06955634 88.4453125 117.3671875 C84.58490298 115.24774698 81.57594102 113.24049773 79.4453125 109.3671875 C79.02625588 106.18481998 79.03520958 103.01103008 79.0078125 99.8046875 C78.65439838 88.24255287 76.50853469 79.0458287 68.4453125 70.3671875 C62.71657359 65.45553895 56.21883546 61.73076394 49.6953125 57.9921875 C48.147229 57.09741699 48.147229 57.09741699 46.56787109 56.18457031 C43.77894741 54.5750795 40.98721036 52.97063863 38.19348145 51.36950684 C36.42351188 50.35468803 34.65450742 49.33820529 32.88574219 48.32128906 C19.49373861 40.62386843 6.07071567 32.98624276 -7.45703125 25.52929688 C-9.67195851 24.30221892 -11.87950936 23.06260296 -14.0859375 21.8203125 C-23.77402428 16.37641302 -33.56642325 11.23884772 -43.5546875 6.3671875 C-43.5546875 5.7071875 -43.5546875 5.0471875 -43.5546875 4.3671875 C-41.03515625 2.67578125 -41.03515625 2.67578125 -37.7421875 0.8046875 C-36.12376953 -0.12537109 -36.12376953 -0.12537109 -34.47265625 -1.07421875 C-24.22264888 -6.54912229 -10.20210305 -4.60526898 0 0 Z " fill="#296AFA" transform="translate(151.5546875,24.6328125)"/>
<path d="M0 0 C4.15798452 1.79549331 6.48699672 4.26692245 9 8 C9.53344727 11.22290039 9.53344727 11.22290039 9.56640625 14.84765625 C9.57570412 15.82647011 9.57570412 15.82647011 9.58518982 16.82505798 C9.59226981 18.20423908 9.58914555 19.58350596 9.57641602 20.96264648 C9.5626927 23.03342205 9.59645722 25.09953772 9.63476562 27.16992188 C9.70408786 38.98891907 7.0116668 48.75078312 -1.3203125 57.38671875 C-1.87460938 57.91910156 -2.42890625 58.45148438 -3 59 C-3.78375 59.763125 -4.5675 60.52625 -5.375 61.3125 C-7.85509807 62.90684876 -9.88037299 63.71017401 -12.6640625 64.60546875 C-13.88150146 65.00028442 -13.88150146 65.00028442 -15.12353516 65.40307617 C-15.74276855 65.60006104 -16.36200195 65.7970459 -17 66 C-17.09288522 58.6718614 -17.16385817 51.34385077 -17.20724869 44.01524162 C-17.22807946 40.61183682 -17.25631258 37.20883625 -17.30175781 33.80566406 C-17.3537335 29.88872194 -17.37298269 25.97194065 -17.390625 22.0546875 C-17.41127014 20.83884979 -17.43191528 19.62301208 -17.45318604 18.37033081 C-17.45488375 11.96026804 -17.42979379 7.81717077 -13 3 C-8.95711409 -0.36907159 -5.06753389 -0.75189019 0 0 Z " fill="#3A3EEE" transform="translate(249,166)"/>
<path d="M0 0 C0.66 0 1.32 0 2 0 C2.12547851 4.31916321 2.21520018 8.63730567 2.2746582 12.95776367 C2.29949426 14.42116823 2.33337629 15.88445296 2.37719727 17.34741211 C2.6730581 27.4936985 1.97250109 35.85572722 -3 45 C-3.99 45.495 -3.99 45.495 -5 46 C-4.52601598 42.96650227 -3.83898785 40.66455802 -2.5 37.875 C0.11936582 30.99296095 -0.41989739 23.27057123 -0.3125 16 C-0.2792797 14.44658657 -0.24478578 12.89319983 -0.20898438 11.33984375 C-0.12461752 7.56004407 -0.05755671 3.7802991 0 0 Z " fill="#423FDD" transform="translate(204,210)"/>
<path d="M0 0 C3.20606142 0.66915502 5.84204807 1.81684956 8.75 3.3125 C9.61882812 3.7559375 10.48765625 4.199375 11.3828125 4.65625 C12.67832031 5.32140625 12.67832031 5.32140625 14 6 C15.54067461 6.77281427 17.08223685 7.54386355 18.625 8.3125 C19.73875 8.869375 20.8525 9.42625 22 10 C22 10.66 22 11.32 22 12 C22.845625 12.2475 23.69125 12.495 24.5625 12.75 C27.67280579 13.88102029 30.28919974 15.28893474 33.12109375 16.98046875 C36.28198569 18.69563049 39.6108798 19.81083502 43 21 C43 21.33 43 21.66 43 22 C38.00660318 21.49539179 34.37254158 20.46275379 29.98046875 18.05078125 C28.87509766 17.44943359 27.76972656 16.84808594 26.63085938 16.22851562 C25.49455078 15.59623047 24.35824219 14.96394531 23.1875 14.3125 C22.06279297 13.69955078 20.93808594 13.08660156 19.77929688 12.45507812 C5.10354654 4.41368791 5.10354654 4.41368791 0 1 C0 0.67 0 0.34 0 0 Z " fill="#402CCF" transform="translate(112,248)"/>
<path d="M0 0 C0.65355469 0.58007812 0.65355469 0.58007812 1.3203125 1.171875 C4.23709685 3.72248296 7.10855887 6.15694064 10.375 8.25 C13 10 13 10 14 12 C15.27230469 12.41378906 15.27230469 12.41378906 16.5703125 12.8359375 C20.73399284 14.24912285 24.15428256 16.31757833 27.875 18.625 C28.56335938 19.04523438 29.25171875 19.46546875 29.9609375 19.8984375 C31.64391658 20.92692472 33.32242532 21.962721 35 23 C34.01 23.495 34.01 23.495 33 24 C30.27371092 22.77120747 27.68701945 21.4835043 25.0625 20.0625 C24.29776367 19.65225586 23.53302734 19.24201172 22.74511719 18.81933594 C14.49162709 14.30511125 6.16367675 9.22637964 0 2 C0 1.34 0 0.68 0 0 Z " fill="#3E2ECD" transform="translate(55,212)"/>
<path d="M0 0 C0 3 0 3 -1.1796875 4.46484375 C-6.84586665 9.3868473 -13.42598121 13.21882988 -21.125 13.25 C-22.548125 13.12625 -22.548125 13.12625 -24 13 C-23.67 12.34 -23.34 11.68 -23 11 C-21.1796875 10.47265625 -21.1796875 10.47265625 -18.875 10.0625 C-12.42374231 8.73942807 -7.53418766 7.01999348 -3 2 C-2.01 1.34 -1.02 0.68 0 0 Z " fill="#3720D4" transform="translate(196,258)"/>
<path d="M0 0 C-0.8125 1.9375 -0.8125 1.9375 -2 4 C-2.99 4.33 -3.98 4.66 -5 5 C-5.33 5.66 -5.66 6.32 -6 7 C-6.33 7.66 -6.66 8.32 -7 9 C-7.99 9.33 -8.98 9.66 -10 10 C-8.50006099 6.10015857 -4.53875449 0 0 0 Z " fill="#315BEC" transform="translate(58,63)"/>
<path d="M0 0 C0.66 0 1.32 0 2 0 C2.67154933 1.28913487 3.33708859 2.58140204 4 3.875 C4.37125 4.59429687 4.7425 5.31359375 5.125 6.0546875 C6 8 6 8 6 10 C6.99 10.33 7.98 10.66 9 11 C8.34 11.66 7.68 12.32 7 13 C6.01364163 11.58833114 5.03618745 10.17043816 4.0625 8.75 C3.51722656 7.96109375 2.97195312 7.1721875 2.41015625 6.359375 C1.10377559 4.17363007 0.45019489 2.4846199 0 0 Z " fill="#3E32D2" transform="translate(45,197)"/>
<path d="M0 0 C1.43931117 0.45261358 2.87638999 0.91232979 4.3125 1.375 C5.11300781 1.63023437 5.91351563 1.88546875 6.73828125 2.1484375 C9 3 9 3 12 5 C7.25081338 4.53439347 3.89217595 3.83067342 0 1 C0 0.67 0 0.34 0 0 Z " fill="#3B24CE" transform="translate(143,265)"/>
<path d="M0 0 C0 0.99 0 1.98 0 3 C-2.5 5.1875 -2.5 5.1875 -5 7 C-5 5.68 -5 4.36 -5 3 C-2.5 1.25 -2.5 1.25 0 0 Z " fill="#3B2BDC" transform="translate(196,258)"/>
</svg>
